<?xml version="1.0" encoding="UTF-8" standalone="no"?>
<!DOCTYPE svg PUBLIC "-//W3C//DTD SVG 1.1//EN"
 "http://www.w3.org/Graphics/SVG/1.1/DTD/svg11.dtd">
<!-- Generated by graphviz version 2.40.1 (20161225.0304)
 -->
<!-- Title: dependencies Pages: 1 -->
<svg width="1463pt" height="366pt"
 viewBox="0.00 0.00 1463.00 366.00" xmlns="http://www.w3.org/2000/svg" xmlns:xlink="http://www.w3.org/1999/xlink">
<g id="graph0" class="graph" transform="scale(1 1) rotate(0) translate(4 362)">
<title>dependencies</title>
<polygon fill="#ffffff" stroke="transparent" points="-4,4 -4,-362 1459,-362 1459,4 -4,4"/>
<text text-anchor="start" x="706.5091" y="-42.4" font-family="sans-serif" font-weight="bold" font-size="14.00" fill="#000000">Legend</text>
<polygon fill="#ffffb3" stroke="transparent" points="493.5,-10 493.5,-30 513.5,-30 513.5,-10 493.5,-10"/>
<text text-anchor="start" x="517.129" y="-15.4" font-family="sans-serif" font-size="14.00" fill="#000000"> &#160;Declarations</text>
<polygon fill="#8dd3c7" stroke="transparent" points="606.5,-10 606.5,-30 626.5,-30 626.5,-10 606.5,-10"/>
<text text-anchor="start" x="630.2251" y="-15.4" font-family="sans-serif" font-size="14.00" fill="#000000"> &#160;Module</text>
<polygon fill="#80b1d3" stroke="transparent" points="692.5,-10 692.5,-30 712.5,-30 712.5,-10 692.5,-10"/>
<text text-anchor="start" x="716.2812" y="-15.4" font-family="sans-serif" font-size="14.00" fill="#000000"> &#160;Bootstrap</text>
<polygon fill="#fdb462" stroke="transparent" points="789.5,-10 789.5,-30 809.5,-30 809.5,-10 789.5,-10"/>
<text text-anchor="start" x="813.1732" y="-15.4" font-family="sans-serif" font-size="14.00" fill="#000000"> &#160;Providers</text>
<polygon fill="#fb8072" stroke="transparent" points="885.5,-10 885.5,-30 905.5,-30 905.5,-10 885.5,-10"/>
<text text-anchor="start" x="909.2258" y="-15.4" font-family="sans-serif" font-size="14.00" fill="#000000"> &#160;Exports</text>
<g id="clust1" class="cluster">
<title>cluster_AboutModule</title>
<polygon fill="none" stroke="#000000" stroke-dasharray="1,5" points="8,-70 8,-282 320,-282 320,-70 8,-70"/>
</g>
<g id="clust2" class="cluster">
<title>cluster_AboutModule_declarations</title>
<polygon fill="none" stroke="#000000" points="180,-78 180,-130 312,-130 312,-78 180,-78"/>
</g>
<g id="clust4" class="cluster">
<title>cluster_AboutModule_imports</title>
<polygon fill="none" stroke="#000000" points="16,-78 16,-130 172,-130 172,-78 16,-78"/>
</g>
<g id="clust5" class="cluster">
<title>cluster_AboutModule_exports</title>
<polygon fill="none" stroke="#000000" points="176,-222 176,-274 312,-274 312,-222 176,-222"/>
</g>
<g id="clust14" class="cluster">
<title>cluster_AppModule</title>
<polygon fill="none" stroke="#000000" stroke-dasharray="1,5" points="441,-146 441,-350 843,-350 843,-146 441,-146"/>
</g>
<g id="clust15" class="cluster">
<title>cluster_AppModule_declarations</title>
<polygon fill="none" stroke="#000000" points="713,-154 713,-206 835,-206 835,-154 713,-154"/>
</g>
<g id="clust17" class="cluster">
<title>cluster_AppModule_imports</title>
<polygon fill="none" stroke="#000000" points="449,-154 449,-206 705,-206 705,-154 449,-154"/>
</g>
<g id="clust19" class="cluster">
<title>cluster_AppModule_bootstrap</title>
<polygon fill="none" stroke="#000000" points="510,-290 510,-342 634,-342 634,-290 510,-290"/>
</g>
<g id="clust27" class="cluster">
<title>cluster_HomeModule</title>
<polygon fill="none" stroke="#000000" stroke-dasharray="1,5" points="328,-70 328,-138 1079,-138 1079,-70 328,-70"/>
</g>
<g id="clust28" class="cluster">
<title>cluster_HomeModule_declarations</title>
<polygon fill="none" stroke="#000000" points="660,-78 660,-130 792,-130 792,-78 660,-78"/>
</g>
<g id="clust30" class="cluster">
<title>cluster_HomeModule_imports</title>
<polygon fill="none" stroke="#000000" points="800,-78 800,-130 1071,-130 1071,-78 800,-78"/>
</g>
<g id="clust31" class="cluster">
<title>cluster_HomeModule_exports</title>
<polygon fill="none" stroke="#000000" points="336,-78 336,-130 472,-130 472,-78 336,-78"/>
</g>
<g id="clust33" class="cluster">
<title>cluster_HomeModule_providers</title>
<polygon fill="none" stroke="#000000" points="480,-78 480,-130 652,-130 652,-78 480,-78"/>
</g>
<g id="clust40" class="cluster">
<title>cluster_SharedModule</title>
<polygon fill="none" stroke="#000000" stroke-dasharray="1,5" points="851,-146 851,-214 1447,-214 1447,-146 851,-146"/>
</g>
<g id="clust41" class="cluster">
<title>cluster_SharedModule_declarations</title>
<polygon fill="none" stroke="#000000" points="1157,-154 1157,-206 1439,-206 1439,-154 1157,-154"/>
</g>
<g id="clust45" class="cluster">
<title>cluster_SharedModule_exports</title>
<polygon fill="none" stroke="#000000" points="859,-154 859,-206 1149,-206 1149,-154 859,-154"/>
</g>
<!-- AboutComponent -->
<g id="node1" class="node">
<title>AboutComponent</title>
<polygon fill="#ffffb3" stroke="#000000" points="304.3301,-122 187.6699,-122 187.6699,-86 304.3301,-86 304.3301,-122"/>
<text text-anchor="middle" x="246" y="-99.8" font-family="Times,serif" font-size="14.00" fill="#000000">AboutComponent</text>
</g>
<!-- AboutModule -->
<g id="node2" class="node">
<title>AboutModule</title>
<polygon fill="#8dd3c7" stroke="#000000" points="292.0481,-198 289.0481,-202 268.0481,-202 265.0481,-198 197.9519,-198 197.9519,-162 292.0481,-162 292.0481,-198"/>
<text text-anchor="middle" x="245" y="-175.8" font-family="Times,serif" font-size="14.00" fill="#000000">AboutModule</text>
</g>
<!-- AboutComponent&#45;&gt;AboutModule -->
<g id="edge1" class="edge">
<title>AboutComponent&#45;&gt;AboutModule</title>
<path fill="none" stroke="#000000" d="M245,-122.0109C245,-122.0109 245,-151.855 245,-151.855"/>
<polygon fill="#000000" stroke="#000000" points="241.5001,-151.8549 245,-161.855 248.5001,-151.855 241.5001,-151.8549"/>
</g>
<!-- AboutComponent  -->
<g id="node4" class="node">
<title>AboutComponent </title>
<polygon fill="#fb8072" stroke="#000000" points="303.8297,-266 184.1703,-266 184.1703,-230 303.8297,-230 303.8297,-266"/>
<text text-anchor="middle" x="244" y="-243.8" font-family="Times,serif" font-size="14.00" fill="#000000">AboutComponent </text>
</g>
<!-- AboutModule&#45;&gt;AboutComponent  -->
<g id="edge3" class="edge">
<title>AboutModule&#45;&gt;AboutComponent </title>
<path fill="none" stroke="#000000" stroke-dasharray="5,2" d="M245,-198.2228C245,-198.2228 245,-219.7269 245,-219.7269"/>
<polygon fill="#000000" stroke="#000000" points="241.5001,-219.7269 245,-229.7269 248.5001,-219.727 241.5001,-219.7269"/>
</g>
<!-- AppModule -->
<g id="node6" class="node">
<title>AppModule</title>
<polygon fill="#8dd3c7" stroke="#000000" points="613.6571,-266 610.6571,-270 589.6571,-270 586.6571,-266 530.3429,-266 530.3429,-230 613.6571,-230 613.6571,-266"/>
<text text-anchor="middle" x="572" y="-243.8" font-family="Times,serif" font-size="14.00" fill="#000000">AppModule</text>
</g>
<!-- AboutModule&#45;&gt;AppModule -->
<g id="edge6" class="edge">
<title>AboutModule&#45;&gt;AppModule</title>
<path fill="none" stroke="#000000" d="M292.0583,-180C309.1387,-180 324.3214,-180 324.3214,-180 324.3214,-180 324.3214,-248 324.3214,-248 324.3214,-248 520.2648,-248 520.2648,-248"/>
<polygon fill="#000000" stroke="#000000" points="520.2648,-251.5001 530.2648,-248 520.2647,-244.5001 520.2648,-251.5001"/>
</g>
<!-- AboutRoutingModule -->
<g id="node3" class="node">
<title>AboutRoutingModule</title>
<polygon fill="#8dd3c7" stroke="#000000" points="163.6652,-122 160.6652,-126 139.6652,-126 136.6652,-122 24.3348,-122 24.3348,-86 163.6652,-86 163.6652,-122"/>
<text text-anchor="middle" x="94" y="-99.8" font-family="Times,serif" font-size="14.00" fill="#000000">AboutRoutingModule</text>
</g>
<!-- AboutRoutingModule&#45;&gt;AboutModule -->
<g id="edge2" class="edge">
<title>AboutRoutingModule&#45;&gt;AboutModule</title>
<path fill="none" stroke="#000000" d="M94,-122.0109C94,-144.4852 94,-180 94,-180 94,-180 187.637,-180 187.637,-180"/>
<polygon fill="#000000" stroke="#000000" points="187.637,-183.5001 197.637,-180 187.6369,-176.5001 187.637,-183.5001"/>
</g>
<!-- AppComponent -->
<g id="node5" class="node">
<title>AppComponent</title>
<polygon fill="#ffffb3" stroke="#000000" points="826.9399,-198 721.0601,-198 721.0601,-162 826.9399,-162 826.9399,-198"/>
<text text-anchor="middle" x="774" y="-175.8" font-family="Times,serif" font-size="14.00" fill="#000000">AppComponent</text>
</g>
<!-- AppComponent&#45;&gt;AppModule -->
<g id="edge4" class="edge">
<title>AppComponent&#45;&gt;AppModule</title>
<path fill="none" stroke="#000000" d="M774,-198.2228C774,-218.3652 774,-248 774,-248 774,-248 623.8545,-248 623.8545,-248"/>
<polygon fill="#000000" stroke="#000000" points="623.8546,-244.5001 613.8545,-248 623.8545,-251.5001 623.8546,-244.5001"/>
</g>
<!-- AppComponent  -->
<g id="node9" class="node">
<title>AppComponent </title>
<polygon fill="#80b1d3" stroke="#000000" points="626.439,-334 517.561,-334 517.561,-298 626.439,-298 626.439,-334"/>
<text text-anchor="middle" x="572" y="-311.8" font-family="Times,serif" font-size="14.00" fill="#000000">AppComponent </text>
</g>
<!-- AppModule&#45;&gt;AppComponent  -->
<g id="edge8" class="edge">
<title>AppModule&#45;&gt;AppComponent </title>
<path fill="none" stroke="#000000" stroke-dasharray="1,5" d="M572,-266.2228C572,-266.2228 572,-287.7269 572,-287.7269"/>
<polygon fill="#000000" stroke="#000000" points="568.5001,-287.7269 572,-297.7269 575.5001,-287.727 568.5001,-287.7269"/>
</g>
<!-- AppRoutingModule -->
<g id="node7" class="node">
<title>AppRoutingModule</title>
<polygon fill="#8dd3c7" stroke="#000000" points="697.2744,-198 694.2744,-202 673.2744,-202 670.2744,-198 568.7256,-198 568.7256,-162 697.2744,-162 697.2744,-198"/>
<text text-anchor="middle" x="633" y="-175.8" font-family="Times,serif" font-size="14.00" fill="#000000">AppRoutingModule</text>
</g>
<!-- AppRoutingModule&#45;&gt;AppModule -->
<g id="edge5" class="edge">
<title>AppRoutingModule&#45;&gt;AppModule</title>
<path fill="none" stroke="#000000" d="M591.2206,-198.2228C591.2206,-198.2228 591.2206,-219.7269 591.2206,-219.7269"/>
<polygon fill="#000000" stroke="#000000" points="587.7206,-219.7269 591.2206,-229.7269 594.7206,-219.727 587.7206,-219.7269"/>
</g>
<!-- HomeModule -->
<g id="node8" class="node">
<title>HomeModule</title>
<polygon fill="#8dd3c7" stroke="#000000" points="550.7619,-198 547.7619,-202 526.7619,-202 523.7619,-198 457.2381,-198 457.2381,-162 550.7619,-162 550.7619,-198"/>
<text text-anchor="middle" x="504" y="-175.8" font-family="Times,serif" font-size="14.00" fill="#000000">HomeModule</text>
</g>
<!-- HomeModule&#45;&gt;AppModule -->
<g id="edge7" class="edge">
<title>HomeModule&#45;&gt;AppModule</title>
<path fill="none" stroke="#000000" d="M540.5263,-198.2228C540.5263,-198.2228 540.5263,-219.7269 540.5263,-219.7269"/>
<polygon fill="#000000" stroke="#000000" points="537.0264,-219.7269 540.5263,-229.7269 544.0264,-219.727 537.0264,-219.7269"/>
</g>
<!-- HomeComponent  -->
<g id="node13" class="node">
<title>HomeComponent </title>
<polygon fill="#fb8072" stroke="#000000" points="463.5442,-122 344.4558,-122 344.4558,-86 463.5442,-86 463.5442,-122"/>
<text text-anchor="middle" x="404" y="-99.8" font-family="Times,serif" font-size="14.00" fill="#000000">HomeComponent </text>
</g>
<!-- HomeModule&#45;&gt;HomeComponent  -->
<g id="edge12" class="edge">
<title>HomeModule&#45;&gt;HomeComponent </title>
<path fill="none" stroke="#000000" stroke-dasharray="5,2" d="M475.7255,-161.9891C475.7255,-139.5148 475.7255,-104 475.7255,-104 475.7255,-104 473.5582,-104 473.5582,-104"/>
<polygon fill="#000000" stroke="#000000" points="473.5583,-100.5001 463.5582,-104 473.5582,-107.5001 473.5583,-100.5001"/>
</g>
<!-- HomeComponent -->
<g id="node10" class="node">
<title>HomeComponent</title>
<polygon fill="#ffffb3" stroke="#000000" points="783.5451,-122 668.4549,-122 668.4549,-86 783.5451,-86 783.5451,-122"/>
<text text-anchor="middle" x="726" y="-99.8" font-family="Times,serif" font-size="14.00" fill="#000000">HomeComponent</text>
</g>
<!-- HomeComponent&#45;&gt;HomeModule -->
<g id="edge9" class="edge">
<title>HomeComponent&#45;&gt;HomeModule</title>
<path fill="none" stroke="#000000" d="M682.8075,-122.207C682.8075,-127.5549 682.8075,-132 682.8075,-132 682.8075,-132 513.1096,-132 513.1096,-132 513.1096,-132 513.1096,-151.8533 513.1096,-151.8533"/>
<polygon fill="#000000" stroke="#000000" points="509.6097,-151.8532 513.1096,-161.8533 516.6097,-151.8533 509.6097,-151.8532"/>
</g>
<!-- HomeRoutingModule -->
<g id="node11" class="node">
<title>HomeRoutingModule</title>
<polygon fill="#8dd3c7" stroke="#000000" points="946.3795,-122 943.3795,-126 922.3795,-126 919.3795,-122 807.6205,-122 807.6205,-86 946.3795,-86 946.3795,-122"/>
<text text-anchor="middle" x="877" y="-99.8" font-family="Times,serif" font-size="14.00" fill="#000000">HomeRoutingModule</text>
</g>
<!-- HomeRoutingModule&#45;&gt;HomeModule -->
<g id="edge10" class="edge">
<title>HomeRoutingModule&#45;&gt;HomeModule</title>
<path fill="none" stroke="#000000" d="M817.1399,-122.1097C817.1399,-131.897 817.1399,-142 817.1399,-142 817.1399,-142 525.7,-142 525.7,-142 525.7,-142 525.7,-151.8903 525.7,-151.8903"/>
<polygon fill="#000000" stroke="#000000" points="522.2001,-151.8903 525.7,-161.8903 529.2001,-151.8904 522.2001,-151.8903"/>
</g>
<!-- SharedModule -->
<g id="node12" class="node">
<title>SharedModule</title>
<polygon fill="#8dd3c7" stroke="#000000" points="1063.4231,-122 1060.4231,-126 1039.4231,-126 1036.4231,-122 964.5769,-122 964.5769,-86 1063.4231,-86 1063.4231,-122"/>
<text text-anchor="middle" x="1014" y="-99.8" font-family="Times,serif" font-size="14.00" fill="#000000">SharedModule</text>
</g>
<!-- SharedModule&#45;&gt;HomeModule -->
<g id="edge11" class="edge">
<title>SharedModule&#45;&gt;HomeModule</title>
<path fill="none" stroke="#000000" d="M974.1974,-122.1467C974.1974,-135.7395 974.1974,-152 974.1974,-152 974.1974,-152 538.2904,-152 538.2904,-152 538.2904,-152 538.2904,-152.9793 538.2904,-152.9793"/>
<polygon fill="#000000" stroke="#000000" points="534.7905,-151.793 538.2904,-161.793 541.7905,-151.7931 534.7905,-151.793"/>
</g>
<!-- ToolbarComponent  -->
<g id="node17" class="node">
<title>ToolbarComponent </title>
<polygon fill="#fb8072" stroke="#000000" points="1140.6509,-198 1011.3491,-198 1011.3491,-162 1140.6509,-162 1140.6509,-198"/>
<text text-anchor="middle" x="1076" y="-175.8" font-family="Times,serif" font-size="14.00" fill="#000000">ToolbarComponent </text>
</g>
<!-- SharedModule&#45;&gt;ToolbarComponent  -->
<g id="edge16" class="edge">
<title>SharedModule&#45;&gt;ToolbarComponent </title>
<path fill="none" stroke="#000000" stroke-dasharray="5,2" d="M1037.3179,-122.0109C1037.3179,-122.0109 1037.3179,-151.855 1037.3179,-151.855"/>
<polygon fill="#000000" stroke="#000000" points="1033.8179,-151.8549 1037.3179,-161.855 1040.8179,-151.855 1033.8179,-151.8549"/>
</g>
<!-- NavbarComponent  -->
<g id="node18" class="node">
<title>NavbarComponent </title>
<polygon fill="#fb8072" stroke="#000000" points="993.0288,-198 866.9712,-198 866.9712,-162 993.0288,-162 993.0288,-198"/>
<text text-anchor="middle" x="930" y="-175.8" font-family="Times,serif" font-size="14.00" fill="#000000">NavbarComponent </text>
</g>
<!-- SharedModule&#45;&gt;NavbarComponent  -->
<g id="edge17" class="edge">
<title>SharedModule&#45;&gt;NavbarComponent </title>
<path fill="none" stroke="#000000" stroke-dasharray="5,2" d="M983.6059,-122.0109C983.6059,-122.0109 983.6059,-151.855 983.6059,-151.855"/>
<polygon fill="#000000" stroke="#000000" points="980.106,-151.8549 983.6059,-161.855 987.106,-151.855 980.106,-151.8549"/>
</g>
<!-- NameListService -->
<g id="node14" class="node">
<title>NameListService</title>
<ellipse fill="#fdb462" stroke="#000000" cx="566" cy="-104" rx="78.1424" ry="18"/>
<text text-anchor="middle" x="566" y="-99.8" font-family="Times,serif" font-size="14.00" fill="#000000">NameListService</text>
</g>
<!-- NameListService&#45;&gt;HomeModule -->
<g id="edge13" class="edge">
<title>NameListService&#45;&gt;HomeModule</title>
<path fill="none" stroke="#000000" d="M500.5192,-113.9357C500.5192,-113.9357 500.5192,-151.9077 500.5192,-151.9077"/>
<polygon fill="#000000" stroke="#000000" points="497.0193,-151.9077 500.5192,-161.9077 504.0193,-151.9078 497.0193,-151.9077"/>
</g>
<!-- ToolbarComponent -->
<g id="node15" class="node">
<title>ToolbarComponent</title>
<polygon fill="#ffffb3" stroke="#000000" points="1430.6513,-198 1305.3487,-198 1305.3487,-162 1430.6513,-162 1430.6513,-198"/>
<text text-anchor="middle" x="1368" y="-175.8" font-family="Times,serif" font-size="14.00" fill="#000000">ToolbarComponent</text>
</g>
<!-- ToolbarComponent&#45;&gt;SharedModule -->
<g id="edge14" class="edge">
<title>ToolbarComponent&#45;&gt;SharedModule</title>
<path fill="none" stroke="#000000" d="M1368,-161.8015C1368,-137.6437 1368,-98 1368,-98 1368,-98 1073.2222,-98 1073.2222,-98"/>
<polygon fill="#000000" stroke="#000000" points="1073.2222,-94.5001 1063.2222,-98 1073.2221,-101.5001 1073.2222,-94.5001"/>
</g>
<!-- NavbarComponent -->
<g id="node16" class="node">
<title>NavbarComponent</title>
<polygon fill="#ffffb3" stroke="#000000" points="1287.0297,-198 1164.9703,-198 1164.9703,-162 1287.0297,-162 1287.0297,-198"/>
<text text-anchor="middle" x="1226" y="-175.8" font-family="Times,serif" font-size="14.00" fill="#000000">NavbarComponent</text>
</g>
<!-- NavbarComponent&#45;&gt;SharedModule -->
<g id="edge15" class="edge">
<title>NavbarComponent&#45;&gt;SharedModule</title>
<path fill="none" stroke="#000000" d="M1226,-161.9733C1226,-141.2328 1226,-110 1226,-110 1226,-110 1073.437,-110 1073.437,-110"/>
<polygon fill="#000000" stroke="#000000" points="1073.4371,-106.5001 1063.437,-110 1073.437,-113.5001 1073.4371,-106.5001"/>
</g>
</g>
</svg>
